General
Complete name                    :The.Spiderwick.Chronicles[2008].avi_Sehrawat.Vkas
Format                           : AVI
Format/Info                      : Audio Video Interleave
File size                        : 791 MiB
Duration                         : 1h 35mn
Overall bit rate                 : 1 154 Kbps
Writing application              : VirtualDubMod 1.5.10.2 (build 2542/release)
Writing library                  : VirtualDubMod build 2542/release

Video
ID                               : 0
Format                           : MPEG-4 Visual
Format profile                   : Advanced Simple@L5
Format settings, BVOP            : Yes
Format settings, QPel            : No
Format settings, GMC             : No warppoints
Format settings, Matrix          : Default (MPEG)
Muxing mode                      : Packed bitstream
Codec ID                         : XVID
Codec ID/Hint                    : XviD
Duration                         : 1h 35mn
Bit rate                         : 844 Kbps
Width                            : 640 pixels
Height                           : 272 pixels
Display aspect ratio             : 2.35:1
Frame rate                       : 23.976 fps
Color space                      : YUV
Chroma subsampling               : 4:2:0
Bit depth                        : 8 bits
Scan type                        : Progressive
Bits/(Pixel*Frame)               : 0.202
Stream size                      : 578 MiB (73%)
Writing library                  : XviD 1.1.2 (UTC 2006-11-01)

Audio #1
ID                               : 1
Format                           : MPEG Audio
Format version                   : Version 1
Format profile                   : Layer 3
Mode                             : Joint stereo
Mode extension                   : MS Stereo
Codec ID                         : 55
Codec ID/Hint                    : MP3
Duration                         : 1h 35mn
Bit rate mode                    : Variable
Bit rate                         : 165 Kbps
Channel(s)                       : 2 channels
Sampling rate                    : 48.0 KHz
Stream size                      : 113 MiB (14%)
Alignment                        : Aligned on interleaves
Interleave, duration             : 24 ms (0.58 video frame)
Interleave, preload duration     : 116 ms
Writing library                  : LAME3.90.
Encoding settings                : -m j -V 2 -q 2 -lowpass 19 --vbr-new

Audio #2
ID                               : 2
Format                           : MPEG Audio
Format version                   : Version 1
Format profile                   : Layer 3
Mode                             : Joint stereo
Mode extension                   : MS Stereo
Codec ID                         : 55
Codec ID/Hint                    : MP3
Duration                         : 1h 35mn
Bit rate mode                    : Constant
Bit rate                         : 128 Kbps
Channel(s)                       : 2 channels
Sampling rate                    : 48.0 KHz
Video delay                      : 96ms
Stream size                      : 87.6 MiB (11%)
Alignment                        : Aligned on interleaves
Interleave, duration             : 42 ms (1.00 video frame)
Interleave, preload duration     : 504 ms
 
http://img43.imageshack.us/img43/1981/thespiderwickchronicles.jpg
 
http://img208.imageshack.us/img208/1981/thespiderwickchronicles.jpg
 
http://img143.imageshack.us/img143/1981/thespiderwickchronicles.jpg
 
http://img188.imageshack.us/img188/1981/thespiderwickchronicles.jpg
 
http://img683.imageshack.us/img683/1981/thespiderwickchronicles.jpg
 
http://img695.imageshack.us/img695/3481/thespiderwickchroniclesl.jpg
 
http://img29.imageshack.us/img29/4674/thespiderwickchroniclesi.jpg
